<svg width="25" height="17" viewBox="0 0 25 17" fill="none" xmlns="http://www.w3.org/2000/svg">
<path fill-rule="evenodd" clip-rule="evenodd" d="M19.9669 6.54C19.2869 3.09 16.2569 0.5 12.6169 0.5C9.72694 0.5 7.21694 2.14 5.96694 4.54C2.95694 4.86 0.616943 7.41 0.616943 10.5C0.616943 13.81 3.30694 16.5 6.61694 16.5H19.6169C22.3769 16.5 24.6169 14.26 24.6169 11.5C24.6169 8.86 22.5669 6.72 19.9669 6.54ZM11.3269 12.79C10.9369 13.18 10.3069 13.18 9.91694 12.79L7.81694 10.7C7.62969 10.5132 7.52446 10.2595 7.52446 9.995C7.52446 9.73048 7.62969 9.47683 7.81694 9.29C8.20694 8.9 8.83694 8.9 9.22694 9.29L10.6169 10.68L15.0969 6.2C15.4869 5.81 16.1169 5.81 16.5069 6.2C16.8969 6.59 16.8969 7.22 16.5069 7.61L11.3269 12.79Z" fill="#C3CAD9"/>
</svg>
