<svg width="19" height="13" viewBox="0 0 19 13" fill="none" xmlns="http://www.w3.org/2000/svg">
<path fill-rule="evenodd" clip-rule="evenodd" d="M1.61694 12.5H5.61694C6.16694 12.5 6.61694 12.05 6.61694 11.5C6.61694 10.95 6.16694 10.5 5.61694 10.5H1.61694C1.06694 10.5 0.616943 10.95 0.616943 11.5C0.616943 12.05 1.06694 12.5 1.61694 12.5ZM0.616943 1.5C0.616943 2.05 1.06694 2.5 1.61694 2.5H17.6169C18.1669 2.5 18.6169 2.05 18.6169 1.5C18.6169 0.95 18.1669 0.5 17.6169 0.5H1.61694C1.06694 0.5 0.616943 0.95 0.616943 1.5ZM1.61694 7.5H11.6169C12.1669 7.5 12.6169 7.05 12.6169 6.5C12.6169 5.95 12.1669 5.5 11.6169 5.5H1.61694C1.06694 5.5 0.616943 5.95 0.616943 6.5C0.616943 7.05 1.06694 7.5 1.61694 7.5Z" fill="#C3CAD9"/>
</svg>
