<svg width="21" height="19" viewBox="0 0 21 19" fill="none" xmlns="http://www.w3.org/2000/svg">
<path fill-rule="evenodd" clip-rule="evenodd" d="M12.1685 0.503498C7.07848 0.363498 2.90848 4.4435 2.90848 9.5035H1.11848C0.668478 9.5035 0.448478 10.0435 0.768478 10.3535L3.55848 13.1535C3.75848 13.3535 4.06848 13.3535 4.26848 13.1535L7.05848 10.3535C7.37848 10.0435 7.14848 9.5035 6.70848 9.5035H4.90848C4.90848 5.6035 8.08848 2.4535 12.0085 2.5035C15.7285 2.5535 18.8585 5.6835 18.9085 9.4035C18.9585 13.3135 15.8085 16.5035 11.9085 16.5035C10.2985 16.5035 8.80848 15.9535 7.62848 15.0235C7.22848 14.7135 6.66848 14.7435 6.30848 15.1035C5.88848 15.5335 5.91848 16.2335 6.38848 16.6035C7.90848 17.7935 9.82848 18.5035 11.9085 18.5035C16.9585 18.5035 21.0485 14.3335 20.9085 9.2435C20.7785 4.5535 16.8585 0.633498 12.1685 0.503498ZM11.6585 5.5035C11.2485 5.5035 10.9085 5.8435 10.9085 6.2535V9.9335C10.9085 10.2835 11.0985 10.6135 11.3985 10.7935L14.5185 12.6435C14.8785 12.8535 15.3385 12.7335 15.5485 12.3835C15.7585 12.0235 15.6385 11.5635 15.2885 11.3535L12.4085 9.6435V6.2435C12.4085 5.8435 12.0785 5.5035 11.6585 5.5035Z" fill="#C3CAD9"/>
</svg>
