<svg width="698" height="537" viewBox="0 0 698 537" fill="none" xmlns="http://www.w3.org/2000/svg">
<path d="M171 16H182C187.523 16 192 20.4772 192 26V40C192 45.5228 187.523 50 182 50H122C116.477 50 112 54.4772 112 60V76C112 81.5228 116.477 86 122 86H129" stroke="#FFCB33" stroke-width="2" stroke-linecap="round" stroke-linejoin="round"/>
<path d="M391 311H402C407.523 311 412 315.477 412 321V336C412 341.523 407.523 346 402 346H374C368.477 346 364 350.477 364 356L364 371C364 376.523 368.477 381 374 381H381" stroke="#8833FF" stroke-width="2" stroke-linecap="round" stroke-linejoin="round"/>
<path d="M503 381H514C519.523 381 524 385.477 524 391V406C524 411.523 519.523 416 514 416H474C468.477 416 464 420.477 464 426L464 441C464 446.523 468.477 451 474 451H481" stroke="#33BFFF" stroke-width="2" stroke-linecap="round" stroke-linejoin="round"/>
<path d="M597 451H608C613.523 451 618 455.477 618 461V476C618 481.523 613.523 486 608 486H568C562.477 486 558 490.477 558 496L558 511C558 516.523 562.477 521 568 521H575" stroke="#FF6633" stroke-width="2" stroke-linecap="round" stroke-linejoin="round"/>
<path d="M317 86H328C333.523 86 338 90.4772 338 96V266C338 271.523 333.523 276 328 276H194C188.477 276 184 280.477 184 286V301C184 306.523 188.477 311 194 311H201" stroke="#29CC39" stroke-width="2" stroke-linecap="round" stroke-linejoin="round"/>
<rect x="578" y="506" width="119" height="30" rx="5" fill="#3361FF" fill-opacity="0.05"/>
<rect x="578" y="506" width="119" height="30" rx="5" stroke="#3361FF" stroke-width="2"/>
<rect x="573" y="516" width="10" height="10" rx="5" fill="white"/>
<rect x="573" y="516" width="10" height="10" rx="5" stroke="#3361FF" stroke-width="2"/>
<path d="M605.463 525H599.51V523.711L602.252 520.828C602.928 520.059 603.266 519.447 603.266 518.994C603.266 518.627 603.186 518.348 603.025 518.156C602.865 517.965 602.633 517.869 602.328 517.869C602.027 517.869 601.783 517.998 601.596 518.256C601.408 518.51 601.314 518.828 601.314 519.211H599.334C599.334 518.688 599.465 518.205 599.727 517.764C599.988 517.318 600.352 516.971 600.816 516.721C601.281 516.471 601.801 516.346 602.375 516.346C603.297 516.346 604.006 516.559 604.502 516.984C605.002 517.41 605.252 518.021 605.252 518.818C605.252 519.154 605.189 519.482 605.064 519.803C604.939 520.119 604.744 520.453 604.479 520.805C604.217 521.152 603.793 521.619 603.207 522.205L602.105 523.477H605.463V525ZM608.264 519.908H609.195C609.934 519.908 610.303 519.547 610.303 518.824C610.303 518.543 610.215 518.314 610.039 518.139C609.863 517.959 609.615 517.869 609.295 517.869C609.033 517.869 608.805 517.945 608.609 518.098C608.418 518.25 608.322 518.439 608.322 518.666H606.348C606.348 518.217 606.473 517.816 606.723 517.465C606.973 517.113 607.318 516.84 607.76 516.645C608.205 516.445 608.693 516.346 609.225 516.346C610.174 516.346 610.92 516.562 611.463 516.996C612.006 517.43 612.277 518.025 612.277 518.783C612.277 519.15 612.164 519.498 611.938 519.826C611.715 520.15 611.389 520.414 610.959 520.617C611.412 520.781 611.768 521.031 612.025 521.367C612.283 521.699 612.412 522.111 612.412 522.604C612.412 523.365 612.119 523.975 611.533 524.432C610.947 524.889 610.178 525.117 609.225 525.117C608.666 525.117 608.146 525.012 607.666 524.801C607.189 524.586 606.828 524.291 606.582 523.916C606.336 523.537 606.213 523.107 606.213 522.627H608.199C608.199 522.889 608.305 523.115 608.516 523.307C608.727 523.498 608.986 523.594 609.295 523.594C609.643 523.594 609.92 523.498 610.127 523.307C610.334 523.111 610.438 522.863 610.438 522.562C610.438 522.133 610.33 521.828 610.115 521.648C609.9 521.469 609.604 521.379 609.225 521.379H608.264V519.908ZM614.662 523.084C614.975 523.084 615.234 523.178 615.441 523.365C615.648 523.549 615.752 523.785 615.752 524.074C615.752 524.363 615.648 524.602 615.441 524.789C615.234 524.973 614.975 525.064 614.662 525.064C614.346 525.064 614.084 524.971 613.877 524.783C613.674 524.596 613.572 524.359 613.572 524.074C613.572 523.789 613.674 523.553 613.877 523.365C614.084 523.178 614.346 523.084 614.662 523.084ZM621.418 525H619.438V518.695L617.492 519.264V517.764L621.236 516.469H621.418V525ZM628.367 525H626.387V518.695L624.441 519.264V517.764L628.186 516.469H628.367V525ZM640.449 521.613H634.268V520.066H640.449V521.613ZM648.711 525H646.73V518.695L644.785 519.264V517.764L648.529 516.469H648.711V525ZM657.236 525H651.283V523.711L654.025 520.828C654.701 520.059 655.039 519.447 655.039 518.994C655.039 518.627 654.959 518.348 654.799 518.156C654.639 517.965 654.406 517.869 654.102 517.869C653.801 517.869 653.557 517.998 653.369 518.256C653.182 518.51 653.088 518.828 653.088 519.211H651.107C651.107 518.688 651.238 518.205 651.5 517.764C651.762 517.318 652.125 516.971 652.59 516.721C653.055 516.471 653.574 516.346 654.148 516.346C655.07 516.346 655.779 516.559 656.275 516.984C656.775 517.41 657.025 518.021 657.025 518.818C657.025 519.154 656.963 519.482 656.838 519.803C656.713 520.119 656.518 520.453 656.252 520.805C655.99 521.152 655.566 521.619 654.98 522.205L653.879 523.477H657.236V525ZM659.486 523.084C659.799 523.084 660.059 523.178 660.266 523.365C660.473 523.549 660.576 523.785 660.576 524.074C660.576 524.363 660.473 524.602 660.266 524.789C660.059 524.973 659.799 525.064 659.486 525.064C659.17 525.064 658.908 524.971 658.701 524.783C658.498 524.596 658.396 524.359 658.396 524.074C658.396 523.789 658.498 523.553 658.701 523.365C658.908 523.178 659.17 523.084 659.486 523.084ZM666.242 525H664.262V518.695L662.316 519.264V517.764L666.061 516.469H666.242V525ZM674.768 525H668.814V523.711L671.557 520.828C672.232 520.059 672.57 519.447 672.57 518.994C672.57 518.627 672.49 518.348 672.33 518.156C672.17 517.965 671.938 517.869 671.633 517.869C671.332 517.869 671.088 517.998 670.9 518.256C670.713 518.51 670.619 518.828 670.619 519.211H668.639C668.639 518.688 668.77 518.205 669.031 517.764C669.293 517.318 669.656 516.971 670.121 516.721C670.586 516.471 671.105 516.346 671.68 516.346C672.602 516.346 673.311 516.559 673.807 516.984C674.307 517.41 674.557 518.021 674.557 518.818C674.557 519.154 674.494 519.482 674.369 519.803C674.244 520.119 674.049 520.453 673.783 520.805C673.521 521.152 673.098 521.619 672.512 522.205L671.41 523.477H674.768V525Z" fill="#6B7A99"/>
<rect x="481" y="436" width="115" height="30" rx="5" fill="#FF6633" fill-opacity="0.05"/>
<rect x="481" y="436" width="115" height="30" rx="5" stroke="#FF6633" stroke-width="2"/>
<rect x="476" y="446" width="10" height="10" rx="5" fill="white"/>
<rect x="476" y="446" width="10" height="10" rx="5" stroke="#FF6633" stroke-width="2"/>
<rect x="591" y="446" width="10" height="10" rx="5" fill="white"/>
<rect x="591" y="446" width="10" height="10" rx="5" stroke="#FF6633" stroke-width="2"/>
<path d="M506.463 455H500.51V453.711L503.252 450.828C503.928 450.059 504.266 449.447 504.266 448.994C504.266 448.627 504.186 448.348 504.025 448.156C503.865 447.965 503.633 447.869 503.328 447.869C503.027 447.869 502.783 447.998 502.596 448.256C502.408 448.51 502.314 448.828 502.314 449.211H500.334C500.334 448.688 500.465 448.205 500.727 447.764C500.988 447.318 501.352 446.971 501.816 446.721C502.281 446.471 502.801 446.346 503.375 446.346C504.297 446.346 505.006 446.559 505.502 446.984C506.002 447.41 506.252 448.021 506.252 448.818C506.252 449.154 506.189 449.482 506.064 449.803C505.939 450.119 505.744 450.453 505.479 450.805C505.217 451.152 504.793 451.619 504.207 452.205L503.105 453.477H506.463V455ZM509.264 449.908H510.195C510.934 449.908 511.303 449.547 511.303 448.824C511.303 448.543 511.215 448.314 511.039 448.139C510.863 447.959 510.615 447.869 510.295 447.869C510.033 447.869 509.805 447.945 509.609 448.098C509.418 448.25 509.322 448.439 509.322 448.666H507.348C507.348 448.217 507.473 447.816 507.723 447.465C507.973 447.113 508.318 446.84 508.76 446.645C509.205 446.445 509.693 446.346 510.225 446.346C511.174 446.346 511.92 446.562 512.463 446.996C513.006 447.43 513.277 448.025 513.277 448.783C513.277 449.15 513.164 449.498 512.938 449.826C512.715 450.15 512.389 450.414 511.959 450.617C512.412 450.781 512.768 451.031 513.025 451.367C513.283 451.699 513.412 452.111 513.412 452.604C513.412 453.365 513.119 453.975 512.533 454.432C511.947 454.889 511.178 455.117 510.225 455.117C509.666 455.117 509.146 455.012 508.666 454.801C508.189 454.586 507.828 454.291 507.582 453.916C507.336 453.537 507.213 453.107 507.213 452.627H509.199C509.199 452.889 509.305 453.115 509.516 453.307C509.727 453.498 509.986 453.594 510.295 453.594C510.643 453.594 510.92 453.498 511.127 453.307C511.334 453.111 511.438 452.863 511.438 452.562C511.438 452.133 511.33 451.828 511.115 451.648C510.9 451.469 510.604 451.379 510.225 451.379H509.264V449.908ZM515.662 453.084C515.975 453.084 516.234 453.178 516.441 453.365C516.648 453.549 516.752 453.785 516.752 454.074C516.752 454.363 516.648 454.602 516.441 454.789C516.234 454.973 515.975 455.064 515.662 455.064C515.346 455.064 515.084 454.971 514.877 454.783C514.674 454.596 514.572 454.359 514.572 454.074C514.572 453.789 514.674 453.553 514.877 453.365C515.084 453.178 515.346 453.084 515.662 453.084ZM522.418 455H520.438V448.695L518.492 449.264V447.764L522.236 446.469H522.418V455ZM529.367 455H527.387V448.695L525.441 449.264V447.764L529.186 446.469H529.367V455ZM541.449 451.613H535.268V450.066H541.449V451.613ZM549.711 455H547.73V448.695L545.785 449.264V447.764L549.529 446.469H549.711V455ZM558.236 455H552.283V453.711L555.025 450.828C555.701 450.059 556.039 449.447 556.039 448.994C556.039 448.627 555.959 448.348 555.799 448.156C555.639 447.965 555.406 447.869 555.102 447.869C554.801 447.869 554.557 447.998 554.369 448.256C554.182 448.51 554.088 448.828 554.088 449.211H552.107C552.107 448.688 552.238 448.205 552.5 447.764C552.762 447.318 553.125 446.971 553.59 446.721C554.055 446.471 554.574 446.346 555.148 446.346C556.07 446.346 556.779 446.559 557.275 446.984C557.775 447.41 558.025 448.021 558.025 448.818C558.025 449.154 557.963 449.482 557.838 449.803C557.713 450.119 557.518 450.453 557.252 450.805C556.99 451.152 556.566 451.619 555.98 452.205L554.879 453.477H558.236V455ZM560.486 453.084C560.799 453.084 561.059 453.178 561.266 453.365C561.473 453.549 561.576 453.785 561.576 454.074C561.576 454.363 561.473 454.602 561.266 454.789C561.059 454.973 560.799 455.064 560.486 455.064C560.17 455.064 559.908 454.971 559.701 454.783C559.498 454.596 559.396 454.359 559.396 454.074C559.396 453.789 559.498 453.553 559.701 453.365C559.908 453.178 560.17 453.084 560.486 453.084ZM567.242 455H565.262V448.695L563.316 449.264V447.764L567.061 446.469H567.242V455ZM575.768 455H569.814V453.711L572.557 450.828C573.232 450.059 573.57 449.447 573.57 448.994C573.57 448.627 573.49 448.348 573.33 448.156C573.17 447.965 572.938 447.869 572.633 447.869C572.332 447.869 572.088 447.998 571.9 448.256C571.713 448.51 571.619 448.828 571.619 449.211H569.639C569.639 448.688 569.77 448.205 570.031 447.764C570.293 447.318 570.656 446.971 571.121 446.721C571.586 446.471 572.105 446.346 572.68 446.346C573.602 446.346 574.311 446.559 574.807 446.984C575.307 447.41 575.557 448.021 575.557 448.818C575.557 449.154 575.494 449.482 575.369 449.803C575.244 450.119 575.049 450.453 574.783 450.805C574.521 451.152 574.098 451.619 573.512 452.205L572.41 453.477H575.768V455Z" fill="#6B7A99"/>
<rect x="386" y="366" width="116" height="30" rx="5" fill="#33BFFF" fill-opacity="0.05"/>
<rect x="386" y="366" width="116" height="30" rx="5" stroke="#33BFFF" stroke-width="2"/>
<rect x="381" y="376" width="10" height="10" rx="5" fill="white"/>
<rect x="381" y="376" width="10" height="10" rx="5" stroke="#33BFFF" stroke-width="2"/>
<rect x="497" y="376" width="10" height="10" rx="5" fill="white"/>
<rect x="497" y="376" width="10" height="10" rx="5" stroke="#33BFFF" stroke-width="2"/>
<path d="M410.475 385H404.521V383.711L407.264 380.828C407.939 380.059 408.277 379.447 408.277 378.994C408.277 378.627 408.197 378.348 408.037 378.156C407.877 377.965 407.645 377.869 407.34 377.869C407.039 377.869 406.795 377.998 406.607 378.256C406.42 378.51 406.326 378.828 406.326 379.211H404.346C404.346 378.688 404.477 378.205 404.738 377.764C405 377.318 405.363 376.971 405.828 376.721C406.293 376.471 406.812 376.346 407.387 376.346C408.309 376.346 409.018 376.559 409.514 376.984C410.014 377.41 410.264 378.021 410.264 378.818C410.264 379.154 410.201 379.482 410.076 379.803C409.951 380.119 409.756 380.453 409.49 380.805C409.229 381.152 408.805 381.619 408.219 382.205L407.117 383.477H410.475V385ZM413.275 379.908H414.207C414.945 379.908 415.314 379.547 415.314 378.824C415.314 378.543 415.227 378.314 415.051 378.139C414.875 377.959 414.627 377.869 414.307 377.869C414.045 377.869 413.816 377.945 413.621 378.098C413.43 378.25 413.334 378.439 413.334 378.666H411.359C411.359 378.217 411.484 377.816 411.734 377.465C411.984 377.113 412.33 376.84 412.771 376.645C413.217 376.445 413.705 376.346 414.236 376.346C415.186 376.346 415.932 376.562 416.475 376.996C417.018 377.43 417.289 378.025 417.289 378.783C417.289 379.15 417.176 379.498 416.949 379.826C416.727 380.15 416.4 380.414 415.971 380.617C416.424 380.781 416.779 381.031 417.037 381.367C417.295 381.699 417.424 382.111 417.424 382.604C417.424 383.365 417.131 383.975 416.545 384.432C415.959 384.889 415.189 385.117 414.236 385.117C413.678 385.117 413.158 385.012 412.678 384.801C412.201 384.586 411.84 384.291 411.594 383.916C411.348 383.537 411.225 383.107 411.225 382.627H413.211C413.211 382.889 413.316 383.115 413.527 383.307C413.738 383.498 413.998 383.594 414.307 383.594C414.654 383.594 414.932 383.498 415.139 383.307C415.346 383.111 415.449 382.863 415.449 382.562C415.449 382.133 415.342 381.828 415.127 381.648C414.912 381.469 414.615 381.379 414.236 381.379H413.275V379.908ZM419.674 383.084C419.986 383.084 420.246 383.178 420.453 383.365C420.66 383.549 420.764 383.785 420.764 384.074C420.764 384.363 420.66 384.602 420.453 384.789C420.246 384.973 419.986 385.064 419.674 385.064C419.357 385.064 419.096 384.971 418.889 384.783C418.686 384.596 418.584 384.359 418.584 384.074C418.584 383.789 418.686 383.553 418.889 383.365C419.096 383.178 419.357 383.084 419.674 383.084ZM426.43 385H424.449V378.695L422.504 379.264V377.764L426.248 376.469H426.43V385ZM433.379 385H431.398V378.695L429.453 379.264V377.764L433.197 376.469H433.379V385ZM445.461 381.613H439.279V380.066H445.461V381.613ZM453.723 385H451.742V378.695L449.797 379.264V377.764L453.541 376.469H453.723V385ZM462.248 385H456.295V383.711L459.037 380.828C459.713 380.059 460.051 379.447 460.051 378.994C460.051 378.627 459.971 378.348 459.811 378.156C459.65 377.965 459.418 377.869 459.113 377.869C458.812 377.869 458.568 377.998 458.381 378.256C458.193 378.51 458.1 378.828 458.1 379.211H456.119C456.119 378.688 456.25 378.205 456.512 377.764C456.773 377.318 457.137 376.971 457.602 376.721C458.066 376.471 458.586 376.346 459.16 376.346C460.082 376.346 460.791 376.559 461.287 376.984C461.787 377.41 462.037 378.021 462.037 378.818C462.037 379.154 461.975 379.482 461.85 379.803C461.725 380.119 461.529 380.453 461.264 380.805C461.002 381.152 460.578 381.619 459.992 382.205L458.891 383.477H462.248V385ZM464.498 383.084C464.811 383.084 465.07 383.178 465.277 383.365C465.484 383.549 465.588 383.785 465.588 384.074C465.588 384.363 465.484 384.602 465.277 384.789C465.07 384.973 464.811 385.064 464.498 385.064C464.182 385.064 463.92 384.971 463.713 384.783C463.51 384.596 463.408 384.359 463.408 384.074C463.408 383.789 463.51 383.553 463.713 383.365C463.92 383.178 464.182 383.084 464.498 383.084ZM471.254 385H469.273V378.695L467.328 379.264V377.764L471.072 376.469H471.254V385ZM479.779 385H473.826V383.711L476.568 380.828C477.244 380.059 477.582 379.447 477.582 378.994C477.582 378.627 477.502 378.348 477.342 378.156C477.182 377.965 476.949 377.869 476.645 377.869C476.344 377.869 476.1 377.998 475.912 378.256C475.725 378.51 475.631 378.828 475.631 379.211H473.65C473.65 378.688 473.781 378.205 474.043 377.764C474.305 377.318 474.668 376.971 475.133 376.721C475.598 376.471 476.117 376.346 476.691 376.346C477.613 376.346 478.322 376.559 478.818 376.984C479.318 377.41 479.568 378.021 479.568 378.818C479.568 379.154 479.506 379.482 479.381 379.803C479.256 380.119 479.061 380.453 478.795 380.805C478.533 381.152 478.109 381.619 477.523 382.205L476.422 383.477H479.779V385Z" fill="#6B7A99"/>
<rect x="206" y="296" width="182" height="30" rx="5" fill="#8833FF" fill-opacity="0.05"/>
<rect x="206" y="296" width="182" height="30" rx="5" stroke="#8833FF" stroke-width="2"/>
<rect x="201" y="306" width="10" height="10" rx="5" fill="white"/>
<rect x="201" y="306" width="10" height="10" rx="5" stroke="#8833FF" stroke-width="2"/>
<rect x="383" y="306" width="10" height="10" rx="5" fill="white"/>
<rect x="383" y="306" width="10" height="10" rx="5" stroke="#8833FF" stroke-width="2"/>
<path d="M236.045 312.732C236.045 312.432 235.938 312.197 235.723 312.029C235.512 311.861 235.139 311.688 234.604 311.508C234.068 311.328 233.631 311.154 233.291 310.986C232.186 310.443 231.633 309.697 231.633 308.748C231.633 308.275 231.77 307.859 232.043 307.5C232.32 307.137 232.711 306.855 233.215 306.656C233.719 306.453 234.285 306.352 234.914 306.352C235.527 306.352 236.076 306.461 236.561 306.68C237.049 306.898 237.428 307.211 237.697 307.617C237.967 308.02 238.102 308.48 238.102 309H236.051C236.051 308.652 235.943 308.383 235.729 308.191C235.518 308 235.23 307.904 234.867 307.904C234.5 307.904 234.209 307.986 233.994 308.15C233.783 308.311 233.678 308.516 233.678 308.766C233.678 308.984 233.795 309.184 234.029 309.363C234.264 309.539 234.676 309.723 235.266 309.914C235.855 310.102 236.34 310.305 236.719 310.523C237.641 311.055 238.102 311.787 238.102 312.721C238.102 313.467 237.82 314.053 237.258 314.479C236.695 314.904 235.924 315.117 234.943 315.117C234.252 315.117 233.625 314.994 233.062 314.748C232.504 314.498 232.082 314.158 231.797 313.729C231.516 313.295 231.375 312.797 231.375 312.234H233.438C233.438 312.691 233.555 313.029 233.789 313.248C234.027 313.463 234.412 313.57 234.943 313.57C235.283 313.57 235.551 313.498 235.746 313.354C235.945 313.205 236.045 312.998 236.045 312.732ZM241.365 307.084V308.66H242.408V310.031H241.365V312.932C241.365 313.17 241.408 313.336 241.494 313.43C241.58 313.523 241.75 313.57 242.004 313.57C242.199 313.57 242.363 313.559 242.496 313.535V314.947C242.141 315.061 241.77 315.117 241.383 315.117C240.703 315.117 240.201 314.957 239.877 314.637C239.553 314.316 239.391 313.83 239.391 313.178V310.031H238.582V308.66H239.391V307.084H241.365ZM246.762 315C246.691 314.871 246.629 314.682 246.574 314.432C246.211 314.889 245.703 315.117 245.051 315.117C244.453 315.117 243.945 314.938 243.527 314.578C243.109 314.215 242.9 313.76 242.9 313.213C242.9 312.525 243.154 312.006 243.662 311.654C244.17 311.303 244.908 311.127 245.877 311.127H246.486V310.793C246.486 310.211 246.234 309.92 245.73 309.92C245.262 309.92 245.027 310.15 245.027 310.611H243.053C243.053 309.998 243.312 309.5 243.832 309.117C244.355 308.734 245.021 308.543 245.83 308.543C246.639 308.543 247.277 308.74 247.746 309.135C248.215 309.529 248.455 310.07 248.467 310.758V313.564C248.475 314.146 248.564 314.592 248.736 314.9V315H246.762ZM245.525 313.711C245.771 313.711 245.975 313.658 246.135 313.553C246.299 313.447 246.416 313.328 246.486 313.195V312.182H245.912C245.225 312.182 244.881 312.49 244.881 313.107C244.881 313.287 244.941 313.434 245.062 313.547C245.184 313.656 245.338 313.711 245.525 313.711ZM253.4 310.447L252.75 310.4C252.129 310.4 251.73 310.596 251.555 310.986V315H249.58V308.66H251.432L251.496 309.475C251.828 308.854 252.291 308.543 252.885 308.543C253.096 308.543 253.279 308.566 253.436 308.613L253.4 310.447ZM256.705 307.084V308.66H257.748V310.031H256.705V312.932C256.705 313.17 256.748 313.336 256.834 313.43C256.92 313.523 257.09 313.57 257.344 313.57C257.539 313.57 257.703 313.559 257.836 313.535V314.947C257.48 315.061 257.109 315.117 256.723 315.117C256.043 315.117 255.541 314.957 255.217 314.637C254.893 314.316 254.73 313.83 254.73 313.178V310.031H253.922V308.66H254.73V307.084H256.705ZM267.439 315H261.486V313.711L264.229 310.828C264.904 310.059 265.242 309.447 265.242 308.994C265.242 308.627 265.162 308.348 265.002 308.156C264.842 307.965 264.609 307.869 264.305 307.869C264.004 307.869 263.76 307.998 263.572 308.256C263.385 308.51 263.291 308.828 263.291 309.211H261.311C261.311 308.688 261.441 308.205 261.703 307.764C261.965 307.318 262.328 306.971 262.793 306.721C263.258 306.471 263.777 306.346 264.352 306.346C265.273 306.346 265.982 306.559 266.479 306.984C266.979 307.41 267.229 308.021 267.229 308.818C267.229 309.154 267.166 309.482 267.041 309.803C266.916 310.119 266.721 310.453 266.455 310.805C266.193 311.152 265.77 311.619 265.184 312.205L264.082 313.477H267.439V315ZM270.24 309.908H271.172C271.91 309.908 272.279 309.547 272.279 308.824C272.279 308.543 272.191 308.314 272.016 308.139C271.84 307.959 271.592 307.869 271.271 307.869C271.01 307.869 270.781 307.945 270.586 308.098C270.395 308.25 270.299 308.439 270.299 308.666H268.324C268.324 308.217 268.449 307.816 268.699 307.465C268.949 307.113 269.295 306.84 269.736 306.645C270.182 306.445 270.67 306.346 271.201 306.346C272.15 306.346 272.896 306.562 273.439 306.996C273.982 307.43 274.254 308.025 274.254 308.783C274.254 309.15 274.141 309.498 273.914 309.826C273.691 310.15 273.365 310.414 272.936 310.617C273.389 310.781 273.744 311.031 274.002 311.367C274.26 311.699 274.389 312.111 274.389 312.604C274.389 313.365 274.096 313.975 273.51 314.432C272.924 314.889 272.154 315.117 271.201 315.117C270.643 315.117 270.123 315.012 269.643 314.801C269.166 314.586 268.805 314.291 268.559 313.916C268.312 313.537 268.189 313.107 268.189 312.627H270.176C270.176 312.889 270.281 313.115 270.492 313.307C270.703 313.498 270.963 313.594 271.271 313.594C271.619 313.594 271.896 313.498 272.104 313.307C272.311 313.111 272.414 312.863 272.414 312.562C272.414 312.133 272.307 311.828 272.092 311.648C271.877 311.469 271.58 311.379 271.201 311.379H270.24V309.908ZM276.639 313.084C276.951 313.084 277.211 313.178 277.418 313.365C277.625 313.549 277.729 313.785 277.729 314.074C277.729 314.363 277.625 314.602 277.418 314.789C277.211 314.973 276.951 315.064 276.639 315.064C276.322 315.064 276.061 314.971 275.854 314.783C275.65 314.596 275.549 314.359 275.549 314.074C275.549 313.789 275.65 313.553 275.854 313.365C276.061 313.178 276.322 313.084 276.639 313.084ZM283.395 315H281.414V308.695L279.469 309.264V307.764L283.213 306.469H283.395V315ZM290.344 315H288.363V308.695L286.418 309.264V307.764L290.162 306.469H290.344V315ZM302.426 311.613H296.244V310.066H302.426V311.613ZM311.725 311.385H308.49V313.418H312.311V315H306.434V306.469H312.322V308.057H308.49V309.855H311.725V311.385ZM314.871 308.66L314.936 309.404C315.373 308.83 315.977 308.543 316.746 308.543C317.406 308.543 317.898 308.74 318.223 309.135C318.551 309.529 318.721 310.123 318.732 310.916V315H316.752V310.998C316.752 310.678 316.688 310.443 316.559 310.295C316.43 310.143 316.195 310.066 315.855 310.066C315.469 310.066 315.182 310.219 314.994 310.523V315H313.02V308.66H314.871ZM319.582 311.783C319.582 310.779 319.799 309.988 320.232 309.41C320.666 308.832 321.271 308.543 322.049 308.543C322.615 308.543 323.092 308.766 323.479 309.211V306H325.459V315H323.684L323.584 314.32C323.178 314.852 322.662 315.117 322.037 315.117C321.283 315.117 320.686 314.828 320.244 314.25C319.803 313.672 319.582 312.85 319.582 311.783ZM321.557 311.906C321.557 313.031 321.885 313.594 322.541 313.594C322.979 313.594 323.291 313.41 323.479 313.043V310.629C323.299 310.254 322.99 310.066 322.553 310.066C321.943 310.066 321.613 310.559 321.562 311.543L321.557 311.906ZM333.914 315H331.934V308.695L329.988 309.264V307.764L333.732 306.469H333.914V315ZM342.439 315H336.486V313.711L339.229 310.828C339.904 310.059 340.242 309.447 340.242 308.994C340.242 308.627 340.162 308.348 340.002 308.156C339.842 307.965 339.609 307.869 339.305 307.869C339.004 307.869 338.76 307.998 338.572 308.256C338.385 308.51 338.291 308.828 338.291 309.211H336.311C336.311 308.688 336.441 308.205 336.703 307.764C336.965 307.318 337.328 306.971 337.793 306.721C338.258 306.471 338.777 306.346 339.352 306.346C340.273 306.346 340.982 306.559 341.479 306.984C341.979 307.41 342.229 308.021 342.229 308.818C342.229 309.154 342.166 309.482 342.041 309.803C341.916 310.119 341.721 310.453 341.455 310.805C341.193 311.152 340.77 311.619 340.184 312.205L339.082 313.477H342.439V315ZM344.689 313.084C345.002 313.084 345.262 313.178 345.469 313.365C345.676 313.549 345.779 313.785 345.779 314.074C345.779 314.363 345.676 314.602 345.469 314.789C345.262 314.973 345.002 315.064 344.689 315.064C344.373 315.064 344.111 314.971 343.904 314.783C343.701 314.596 343.6 314.359 343.6 314.074C343.6 313.789 343.701 313.553 343.904 313.365C344.111 313.178 344.373 313.084 344.689 313.084ZM351.445 315H349.465V308.695L347.52 309.264V307.764L351.264 306.469H351.445V315ZM359.971 315H354.018V313.711L356.76 310.828C357.436 310.059 357.773 309.447 357.773 308.994C357.773 308.627 357.693 308.348 357.533 308.156C357.373 307.965 357.141 307.869 356.836 307.869C356.535 307.869 356.291 307.998 356.104 308.256C355.916 308.51 355.822 308.828 355.822 309.211H353.842C353.842 308.688 353.973 308.205 354.234 307.764C354.496 307.318 354.859 306.971 355.324 306.721C355.789 306.471 356.309 306.346 356.883 306.346C357.805 306.346 358.514 306.559 359.01 306.984C359.51 307.41 359.76 308.021 359.76 308.818C359.76 309.154 359.697 309.482 359.572 309.803C359.447 310.119 359.252 310.453 358.986 310.805C358.725 311.152 358.301 311.619 357.715 312.205L356.613 313.477H359.971V315Z" fill="#6B7A99"/>
<rect x="134" y="71" width="182" height="30" rx="5" fill="#29CC39" fill-opacity="0.05"/>
<rect x="134" y="71" width="182" height="30" rx="5" stroke="#29CC39" stroke-width="2"/>
<rect x="129" y="81" width="10" height="10" rx="5" fill="white"/>
<rect x="129" y="81" width="10" height="10" rx="5" stroke="#29CC39" stroke-width="2"/>
<path d="M164.045 87.7324C164.045 87.4316 163.938 87.1973 163.723 87.0293C163.512 86.8613 163.139 86.6875 162.604 86.5078C162.068 86.3281 161.631 86.1543 161.291 85.9863C160.186 85.4434 159.633 84.6973 159.633 83.748C159.633 83.2754 159.77 82.8594 160.043 82.5C160.32 82.1367 160.711 81.8555 161.215 81.6562C161.719 81.4531 162.285 81.3516 162.914 81.3516C163.527 81.3516 164.076 81.4609 164.561 81.6797C165.049 81.8984 165.428 82.2109 165.697 82.6172C165.967 83.0195 166.102 83.4805 166.102 84H164.051C164.051 83.6523 163.943 83.3828 163.729 83.1914C163.518 83 163.23 82.9043 162.867 82.9043C162.5 82.9043 162.209 82.9863 161.994 83.1504C161.783 83.3105 161.678 83.5156 161.678 83.7656C161.678 83.9844 161.795 84.1836 162.029 84.3633C162.264 84.5391 162.676 84.7227 163.266 84.9141C163.855 85.1016 164.34 85.3047 164.719 85.5234C165.641 86.0547 166.102 86.7871 166.102 87.7207C166.102 88.4668 165.82 89.0527 165.258 89.4785C164.695 89.9043 163.924 90.1172 162.943 90.1172C162.252 90.1172 161.625 89.9941 161.062 89.748C160.504 89.498 160.082 89.1582 159.797 88.7285C159.516 88.2949 159.375 87.7969 159.375 87.2344H161.438C161.438 87.6914 161.555 88.0293 161.789 88.248C162.027 88.4629 162.412 88.5703 162.943 88.5703C163.283 88.5703 163.551 88.498 163.746 88.3535C163.945 88.2051 164.045 87.998 164.045 87.7324ZM169.365 82.084V83.6602H170.408V85.0312H169.365V87.9316C169.365 88.1699 169.408 88.3359 169.494 88.4297C169.58 88.5234 169.75 88.5703 170.004 88.5703C170.199 88.5703 170.363 88.5586 170.496 88.5352V89.9473C170.141 90.0605 169.77 90.1172 169.383 90.1172C168.703 90.1172 168.201 89.957 167.877 89.6367C167.553 89.3164 167.391 88.8301 167.391 88.1777V85.0312H166.582V83.6602H167.391V82.084H169.365ZM174.762 90C174.691 89.8711 174.629 89.6816 174.574 89.4316C174.211 89.8887 173.703 90.1172 173.051 90.1172C172.453 90.1172 171.945 89.9375 171.527 89.5781C171.109 89.2148 170.9 88.7598 170.9 88.2129C170.9 87.5254 171.154 87.0059 171.662 86.6543C172.17 86.3027 172.908 86.127 173.877 86.127H174.486V85.793C174.486 85.2109 174.234 84.9199 173.73 84.9199C173.262 84.9199 173.027 85.1504 173.027 85.6113H171.053C171.053 84.998 171.312 84.5 171.832 84.1172C172.355 83.7344 173.021 83.543 173.83 83.543C174.639 83.543 175.277 83.7402 175.746 84.1348C176.215 84.5293 176.455 85.0703 176.467 85.7578V88.5645C176.475 89.1465 176.564 89.5918 176.736 89.9004V90H174.762ZM173.525 88.7109C173.771 88.7109 173.975 88.6582 174.135 88.5527C174.299 88.4473 174.416 88.3281 174.486 88.1953V87.1816H173.912C173.225 87.1816 172.881 87.4902 172.881 88.1074C172.881 88.2871 172.941 88.4336 173.062 88.5469C173.184 88.6562 173.338 88.7109 173.525 88.7109ZM181.4 85.4473L180.75 85.4004C180.129 85.4004 179.73 85.5957 179.555 85.9863V90H177.58V83.6602H179.432L179.496 84.4746C179.828 83.8535 180.291 83.543 180.885 83.543C181.096 83.543 181.279 83.5664 181.436 83.6133L181.4 85.4473ZM184.705 82.084V83.6602H185.748V85.0312H184.705V87.9316C184.705 88.1699 184.748 88.3359 184.834 88.4297C184.92 88.5234 185.09 88.5703 185.344 88.5703C185.539 88.5703 185.703 88.5586 185.836 88.5352V89.9473C185.48 90.0605 185.109 90.1172 184.723 90.1172C184.043 90.1172 183.541 89.957 183.217 89.6367C182.893 89.3164 182.73 88.8301 182.73 88.1777V85.0312H181.922V83.6602H182.73V82.084H184.705ZM195.439 90H189.486V88.7109L192.229 85.8281C192.904 85.0586 193.242 84.4473 193.242 83.9941C193.242 83.627 193.162 83.3477 193.002 83.1562C192.842 82.9648 192.609 82.8691 192.305 82.8691C192.004 82.8691 191.76 82.998 191.572 83.2559C191.385 83.5098 191.291 83.8281 191.291 84.2109H189.311C189.311 83.6875 189.441 83.2051 189.703 82.7637C189.965 82.3184 190.328 81.9707 190.793 81.7207C191.258 81.4707 191.777 81.3457 192.352 81.3457C193.273 81.3457 193.982 81.5586 194.479 81.9844C194.979 82.4102 195.229 83.0215 195.229 83.8184C195.229 84.1543 195.166 84.4824 195.041 84.8027C194.916 85.1191 194.721 85.4531 194.455 85.8047C194.193 86.1523 193.77 86.6191 193.184 87.2051L192.082 88.4766H195.439V90ZM198.24 84.9082H199.172C199.91 84.9082 200.279 84.5469 200.279 83.8242C200.279 83.543 200.191 83.3145 200.016 83.1387C199.84 82.959 199.592 82.8691 199.271 82.8691C199.01 82.8691 198.781 82.9453 198.586 83.0977C198.395 83.25 198.299 83.4395 198.299 83.666H196.324C196.324 83.2168 196.449 82.8164 196.699 82.4648C196.949 82.1133 197.295 81.8398 197.736 81.6445C198.182 81.4453 198.67 81.3457 199.201 81.3457C200.15 81.3457 200.896 81.5625 201.439 81.9961C201.982 82.4297 202.254 83.0254 202.254 83.7832C202.254 84.1504 202.141 84.498 201.914 84.8262C201.691 85.1504 201.365 85.4141 200.936 85.6172C201.389 85.7812 201.744 86.0312 202.002 86.3672C202.26 86.6992 202.389 87.1113 202.389 87.6035C202.389 88.3652 202.096 88.9746 201.51 89.4316C200.924 89.8887 200.154 90.1172 199.201 90.1172C198.643 90.1172 198.123 90.0117 197.643 89.8008C197.166 89.5859 196.805 89.291 196.559 88.916C196.312 88.5371 196.189 88.1074 196.189 87.627H198.176C198.176 87.8887 198.281 88.1152 198.492 88.3066C198.703 88.498 198.963 88.5938 199.271 88.5938C199.619 88.5938 199.896 88.498 200.104 88.3066C200.311 88.1113 200.414 87.8633 200.414 87.5625C200.414 87.1328 200.307 86.8281 200.092 86.6484C199.877 86.4688 199.58 86.3789 199.201 86.3789H198.24V84.9082ZM204.639 88.084C204.951 88.084 205.211 88.1777 205.418 88.3652C205.625 88.5488 205.729 88.7852 205.729 89.0742C205.729 89.3633 205.625 89.6016 205.418 89.7891C205.211 89.9727 204.951 90.0645 204.639 90.0645C204.322 90.0645 204.061 89.9707 203.854 89.7832C203.65 89.5957 203.549 89.3594 203.549 89.0742C203.549 88.7891 203.65 88.5527 203.854 88.3652C204.061 88.1777 204.322 88.084 204.639 88.084ZM211.395 90H209.414V83.6953L207.469 84.2637V82.7637L211.213 81.4688H211.395V90ZM218.344 90H216.363V83.6953L214.418 84.2637V82.7637L218.162 81.4688H218.344V90ZM230.426 86.6133H224.244V85.0664H230.426V86.6133ZM239.725 86.3848H236.49V88.418H240.311V90H234.434V81.4688H240.322V83.0566H236.49V84.8555H239.725V86.3848ZM242.871 83.6602L242.936 84.4043C243.373 83.8301 243.977 83.543 244.746 83.543C245.406 83.543 245.898 83.7402 246.223 84.1348C246.551 84.5293 246.721 85.123 246.732 85.916V90H244.752V85.998C244.752 85.6777 244.688 85.4434 244.559 85.2949C244.43 85.1426 244.195 85.0664 243.855 85.0664C243.469 85.0664 243.182 85.2188 242.994 85.5234V90H241.02V83.6602H242.871ZM247.582 86.7832C247.582 85.7793 247.799 84.9883 248.232 84.4102C248.666 83.832 249.271 83.543 250.049 83.543C250.615 83.543 251.092 83.7656 251.479 84.2109V81H253.459V90H251.684L251.584 89.3203C251.178 89.8516 250.662 90.1172 250.037 90.1172C249.283 90.1172 248.686 89.8281 248.244 89.25C247.803 88.6719 247.582 87.8496 247.582 86.7832ZM249.557 86.9062C249.557 88.0312 249.885 88.5938 250.541 88.5938C250.979 88.5938 251.291 88.4102 251.479 88.043V85.6289C251.299 85.2539 250.99 85.0664 250.553 85.0664C249.943 85.0664 249.613 85.5586 249.562 86.543L249.557 86.9062ZM261.914 90H259.934V83.6953L257.988 84.2637V82.7637L261.732 81.4688H261.914V90ZM270.439 90H264.486V88.7109L267.229 85.8281C267.904 85.0586 268.242 84.4473 268.242 83.9941C268.242 83.627 268.162 83.3477 268.002 83.1562C267.842 82.9648 267.609 82.8691 267.305 82.8691C267.004 82.8691 266.76 82.998 266.572 83.2559C266.385 83.5098 266.291 83.8281 266.291 84.2109H264.311C264.311 83.6875 264.441 83.2051 264.703 82.7637C264.965 82.3184 265.328 81.9707 265.793 81.7207C266.258 81.4707 266.777 81.3457 267.352 81.3457C268.273 81.3457 268.982 81.5586 269.479 81.9844C269.979 82.4102 270.229 83.0215 270.229 83.8184C270.229 84.1543 270.166 84.4824 270.041 84.8027C269.916 85.1191 269.721 85.4531 269.455 85.8047C269.193 86.1523 268.77 86.6191 268.184 87.2051L267.082 88.4766H270.439V90ZM272.689 88.084C273.002 88.084 273.262 88.1777 273.469 88.3652C273.676 88.5488 273.779 88.7852 273.779 89.0742C273.779 89.3633 273.676 89.6016 273.469 89.7891C273.262 89.9727 273.002 90.0645 272.689 90.0645C272.373 90.0645 272.111 89.9707 271.904 89.7832C271.701 89.5957 271.6 89.3594 271.6 89.0742C271.6 88.7891 271.701 88.5527 271.904 88.3652C272.111 88.1777 272.373 88.084 272.689 88.084ZM279.445 90H277.465V83.6953L275.52 84.2637V82.7637L279.264 81.4688H279.445V90ZM287.971 90H282.018V88.7109L284.76 85.8281C285.436 85.0586 285.773 84.4473 285.773 83.9941C285.773 83.627 285.693 83.3477 285.533 83.1562C285.373 82.9648 285.141 82.8691 284.836 82.8691C284.535 82.8691 284.291 82.998 284.104 83.2559C283.916 83.5098 283.822 83.8281 283.822 84.2109H281.842C281.842 83.6875 281.973 83.2051 282.234 82.7637C282.496 82.3184 282.859 81.9707 283.324 81.7207C283.789 81.4707 284.309 81.3457 284.883 81.3457C285.805 81.3457 286.514 81.5586 287.01 81.9844C287.51 82.4102 287.76 83.0215 287.76 83.8184C287.76 84.1543 287.697 84.4824 287.572 84.8027C287.447 85.1191 287.252 85.4531 286.986 85.8047C286.725 86.1523 286.301 86.6191 285.715 87.2051L284.613 88.4766H287.971V90Z" fill="#6B7A99"/>
<rect x="311" y="81" width="10" height="10" rx="5" fill="white"/>
<rect x="311" y="81" width="10" height="10" rx="5" stroke="#29CC39" stroke-width="2"/>
<rect x="1" y="1" width="165" height="30" rx="5" fill="#FFCB33" fill-opacity="0.05"/>
<rect x="1" y="1" width="165" height="30" rx="5" stroke="#FFCB33" stroke-width="2"/>
<path d="M24.0449 17.7324C24.0449 17.4316 23.9375 17.1973 23.7227 17.0293C23.5117 16.8613 23.1387 16.6875 22.6035 16.5078C22.0684 16.3281 21.6309 16.1543 21.291 15.9863C20.1855 15.4434 19.6328 14.6973 19.6328 13.748C19.6328 13.2754 19.7695 12.8594 20.043 12.5C20.3203 12.1367 20.7109 11.8555 21.2148 11.6562C21.7188 11.4531 22.2852 11.3516 22.9141 11.3516C23.5273 11.3516 24.0762 11.4609 24.5605 11.6797C25.0488 11.8984 25.4277 12.2109 25.6973 12.6172C25.9668 13.0195 26.1016 13.4805 26.1016 14H24.0508C24.0508 13.6523 23.9434 13.3828 23.7285 13.1914C23.5176 13 23.2305 12.9043 22.8672 12.9043C22.5 12.9043 22.209 12.9863 21.9941 13.1504C21.7832 13.3105 21.6777 13.5156 21.6777 13.7656C21.6777 13.9844 21.7949 14.1836 22.0293 14.3633C22.2637 14.5391 22.6758 14.7227 23.2656 14.9141C23.8555 15.1016 24.3398 15.3047 24.7188 15.5234C25.6406 16.0547 26.1016 16.7871 26.1016 17.7207C26.1016 18.4668 25.8203 19.0527 25.2578 19.4785C24.6953 19.9043 23.9238 20.1172 22.9434 20.1172C22.252 20.1172 21.625 19.9941 21.0625 19.748C20.5039 19.498 20.082 19.1582 19.7969 18.7285C19.5156 18.2949 19.375 17.7969 19.375 17.2344H21.4375C21.4375 17.6914 21.5547 18.0293 21.7891 18.248C22.0273 18.4629 22.4121 18.5703 22.9434 18.5703C23.2832 18.5703 23.5508 18.498 23.7461 18.3535C23.9453 18.2051 24.0449 17.998 24.0449 17.7324ZM29.3652 12.084V13.6602H30.4082V15.0312H29.3652V17.9316C29.3652 18.1699 29.4082 18.3359 29.4941 18.4297C29.5801 18.5234 29.75 18.5703 30.0039 18.5703C30.1992 18.5703 30.3633 18.5586 30.4961 18.5352V19.9473C30.1406 20.0605 29.7695 20.1172 29.3828 20.1172C28.7031 20.1172 28.2012 19.957 27.877 19.6367C27.5527 19.3164 27.3906 18.8301 27.3906 18.1777V15.0312H26.582V13.6602H27.3906V12.084H29.3652ZM34.7617 20C34.6914 19.8711 34.6289 19.6816 34.5742 19.4316C34.2109 19.8887 33.7031 20.1172 33.0508 20.1172C32.4531 20.1172 31.9453 19.9375 31.5273 19.5781C31.1094 19.2148 30.9004 18.7598 30.9004 18.2129C30.9004 17.5254 31.1543 17.0059 31.6621 16.6543C32.1699 16.3027 32.9082 16.127 33.877 16.127H34.4863V15.793C34.4863 15.2109 34.2344 14.9199 33.7305 14.9199C33.2617 14.9199 33.0273 15.1504 33.0273 15.6113H31.0527C31.0527 14.998 31.3125 14.5 31.832 14.1172C32.3555 13.7344 33.0215 13.543 33.8301 13.543C34.6387 13.543 35.2773 13.7402 35.7461 14.1348C36.2148 14.5293 36.4551 15.0703 36.4668 15.7578V18.5645C36.4746 19.1465 36.5645 19.5918 36.7363 19.9004V20H34.7617ZM33.5254 18.7109C33.7715 18.7109 33.9746 18.6582 34.1348 18.5527C34.2988 18.4473 34.416 18.3281 34.4863 18.1953V17.1816H33.9121C33.2246 17.1816 32.8809 17.4902 32.8809 18.1074C32.8809 18.2871 32.9414 18.4336 33.0625 18.5469C33.1836 18.6562 33.3379 18.7109 33.5254 18.7109ZM41.4004 15.4473L40.75 15.4004C40.1289 15.4004 39.7305 15.5957 39.5547 15.9863V20H37.5801V13.6602H39.4316L39.4961 14.4746C39.8281 13.8535 40.291 13.543 40.8848 13.543C41.0957 13.543 41.2793 13.5664 41.4355 13.6133L41.4004 15.4473ZM44.7051 12.084V13.6602H45.748V15.0312H44.7051V17.9316C44.7051 18.1699 44.748 18.3359 44.834 18.4297C44.9199 18.5234 45.0898 18.5703 45.3438 18.5703C45.5391 18.5703 45.7031 18.5586 45.8359 18.5352V19.9473C45.4805 20.0605 45.1094 20.1172 44.7227 20.1172C44.043 20.1172 43.541 19.957 43.2168 19.6367C42.8926 19.3164 42.7305 18.8301 42.7305 18.1777V15.0312H41.9219V13.6602H42.7305V12.084H44.7051ZM55.4102 16.5137C55.4102 17.666 55.1504 18.5547 54.6309 19.1797C54.1152 19.8047 53.3867 20.1172 52.4453 20.1172C51.4961 20.1172 50.7617 19.8027 50.2422 19.1738C49.7227 18.5449 49.4629 17.6582 49.4629 16.5137V14.9551C49.4629 13.8027 49.7207 12.9141 50.2363 12.2891C50.7559 11.6641 51.4883 11.3516 52.4336 11.3516C53.3789 11.3516 54.1113 11.666 54.6309 12.2949C55.1504 12.9238 55.4102 13.8125 55.4102 14.9609V16.5137ZM53.4355 14.7031C53.4355 14.0898 53.3555 13.6328 53.1953 13.332C53.0352 13.0273 52.7812 12.875 52.4336 12.875C52.0938 12.875 51.8457 13.0156 51.6895 13.2969C51.5371 13.5781 51.4551 14.0039 51.4434 14.5742V16.7539C51.4434 17.3906 51.5234 17.8574 51.6836 18.1543C51.8438 18.4473 52.0977 18.5938 52.4453 18.5938C52.7812 18.5938 53.0293 18.4512 53.1895 18.166C53.3496 17.877 53.4316 17.4258 53.4355 16.8125V14.7031ZM60.8125 20H58.832V13.6953L56.8867 14.2637V12.7637L60.6309 11.4688H60.8125V20ZM64.6387 18.084C64.9512 18.084 65.2109 18.1777 65.418 18.3652C65.625 18.5488 65.7285 18.7852 65.7285 19.0742C65.7285 19.3633 65.625 19.6016 65.418 19.7891C65.2109 19.9727 64.9512 20.0645 64.6387 20.0645C64.3223 20.0645 64.0605 19.9707 63.8535 19.7832C63.6504 19.5957 63.5488 19.3594 63.5488 19.0742C63.5488 18.7891 63.6504 18.5527 63.8535 18.3652C64.0605 18.1777 64.3223 18.084 64.6387 18.084ZM71.3945 20H69.4141V13.6953L67.4688 14.2637V12.7637L71.2129 11.4688H71.3945V20ZM78.3438 20H76.3633V13.6953L74.418 14.2637V12.7637L78.1621 11.4688H78.3438V20ZM90.4258 16.6133H84.2441V15.0664H90.4258V16.6133ZM99.7246 16.3848H96.4902V18.418H100.311V20H94.4336V11.4688H100.322V13.0566H96.4902V14.8555H99.7246V16.3848ZM102.871 13.6602L102.936 14.4043C103.373 13.8301 103.977 13.543 104.746 13.543C105.406 13.543 105.898 13.7402 106.223 14.1348C106.551 14.5293 106.721 15.123 106.732 15.916V20H104.752V15.998C104.752 15.6777 104.688 15.4434 104.559 15.2949C104.43 15.1426 104.195 15.0664 103.855 15.0664C103.469 15.0664 103.182 15.2188 102.994 15.5234V20H101.02V13.6602H102.871ZM107.582 16.7832C107.582 15.7793 107.799 14.9883 108.232 14.4102C108.666 13.832 109.271 13.543 110.049 13.543C110.615 13.543 111.092 13.7656 111.479 14.2109V11H113.459V20H111.684L111.584 19.3203C111.178 19.8516 110.662 20.1172 110.037 20.1172C109.283 20.1172 108.686 19.8281 108.244 19.25C107.803 18.6719 107.582 17.8496 107.582 16.7832ZM109.557 16.9062C109.557 18.0312 109.885 18.5938 110.541 18.5938C110.979 18.5938 111.291 18.4102 111.479 18.043V15.6289C111.299 15.2539 110.99 15.0664 110.553 15.0664C109.943 15.0664 109.613 15.5586 109.562 16.543L109.557 16.9062ZM123.49 20H117.537V18.7109L120.279 15.8281C120.955 15.0586 121.293 14.4473 121.293 13.9941C121.293 13.627 121.213 13.3477 121.053 13.1562C120.893 12.9648 120.66 12.8691 120.355 12.8691C120.055 12.8691 119.811 12.998 119.623 13.2559C119.436 13.5098 119.342 13.8281 119.342 14.2109H117.361C117.361 13.6875 117.492 13.2051 117.754 12.7637C118.016 12.3184 118.379 11.9707 118.844 11.7207C119.309 11.4707 119.828 11.3457 120.402 11.3457C121.324 11.3457 122.033 11.5586 122.529 11.9844C123.029 12.4102 123.279 13.0215 123.279 13.8184C123.279 14.1543 123.217 14.4824 123.092 14.8027C122.967 15.1191 122.771 15.4531 122.506 15.8047C122.244 16.1523 121.82 16.6191 121.234 17.2051L120.133 18.4766H123.49V20ZM130.439 20H124.486V18.7109L127.229 15.8281C127.904 15.0586 128.242 14.4473 128.242 13.9941C128.242 13.627 128.162 13.3477 128.002 13.1562C127.842 12.9648 127.609 12.8691 127.305 12.8691C127.004 12.8691 126.76 12.998 126.572 13.2559C126.385 13.5098 126.291 13.8281 126.291 14.2109H124.311C124.311 13.6875 124.441 13.2051 124.703 12.7637C124.965 12.3184 125.328 11.9707 125.793 11.7207C126.258 11.4707 126.777 11.3457 127.352 11.3457C128.273 11.3457 128.982 11.5586 129.479 11.9844C129.979 12.4102 130.229 13.0215 130.229 13.8184C130.229 14.1543 130.166 14.4824 130.041 14.8027C129.916 15.1191 129.721 15.4531 129.455 15.8047C129.193 16.1523 128.77 16.6191 128.184 17.2051L127.082 18.4766H130.439V20ZM132.689 18.084C133.002 18.084 133.262 18.1777 133.469 18.3652C133.676 18.5488 133.779 18.7852 133.779 19.0742C133.779 19.3633 133.676 19.6016 133.469 19.7891C133.262 19.9727 133.002 20.0645 132.689 20.0645C132.373 20.0645 132.111 19.9707 131.904 19.7832C131.701 19.5957 131.6 19.3594 131.6 19.0742C131.6 18.7891 131.701 18.5527 131.904 18.3652C132.111 18.1777 132.373 18.084 132.689 18.084ZM139.445 20H137.465V13.6953L135.52 14.2637V12.7637L139.264 11.4688H139.445V20ZM146.395 20H144.414V13.6953L142.469 14.2637V12.7637L146.213 11.4688H146.395V20Z" fill="#6B7A99"/>
<rect x="161" y="11" width="10" height="10" rx="5" fill="white"/>
<rect x="161" y="11" width="10" height="10" rx="5" stroke="#FFCB33" stroke-width="2"/>
</svg>
